<svg width="158" height="105" viewBox="0 0 158 105" fill="none" xmlns="http://www.w3.org/2000/svg">
<path d="M91.4208 85.4117H90.5594V81.2864C90.5588 80.7396 90.3772 80.2153 90.0542 79.8286C89.7312 79.4419 89.2933 79.2244 88.8366 79.2238H87.1138V78.1924C87.1132 77.6456 86.9316 77.1213 86.6086 76.7346C86.2856 76.3479 85.8477 76.1304 85.3909 76.1298H82.8067C82.35 76.1304 81.9121 76.3479 81.5891 76.7346C81.2661 77.1213 81.0844 77.6456 81.0839 78.1924V85.4117H75.9155V78.1924C75.915 77.6456 75.7333 77.1213 75.4104 76.7346C75.0874 76.3479 74.6495 76.1304 74.1927 76.1298H71.6085C71.1517 76.1304 70.7138 76.3479 70.3909 76.7346C70.0679 77.1213 69.8862 77.6456 69.8857 78.1924V79.2238H68.1629C67.7061 79.2244 67.2682 79.4419 66.9453 79.8286C66.6223 80.2153 66.4406 80.7396 66.4401 81.2864V85.4117H65.5787C65.3502 85.4117 65.1311 85.5204 64.9696 85.7138C64.808 85.9072 64.7173 86.1695 64.7173 86.4431C64.7173 86.7166 64.808 86.9789 64.9696 87.1723C65.1311 87.3657 65.3502 87.4744 65.5787 87.4744H66.4401V91.5997C66.4406 92.1466 66.6223 92.6709 66.9453 93.0576C67.2682 93.4443 67.7061 93.6618 68.1629 93.6624H69.8857V94.6937C69.8862 95.2406 70.0679 95.7649 70.3909 96.1516C70.7138 96.5383 71.1517 96.7558 71.6085 96.7564H74.1927C74.6495 96.7558 75.0874 96.5383 75.4104 96.1516C75.7333 95.7649 75.915 95.2406 75.9155 94.6937V87.4744H81.0839V94.6937C81.0844 95.2406 81.2661 95.7649 81.5891 96.1516C81.9121 96.5383 82.35 96.7558 82.8067 96.7564H85.3909C85.8477 96.7558 86.2856 96.5383 86.6086 96.1516C86.9316 95.7649 87.1132 95.2406 87.1138 94.6937V93.6624H88.8366C89.2933 93.6618 89.7312 93.4443 90.0542 93.0576C90.3772 92.6709 90.5588 92.1466 90.5594 91.5997V87.4744H91.4208C91.6492 87.4744 91.8683 87.3657 92.0299 87.1723C92.1914 86.9789 92.2822 86.7166 92.2822 86.4431C92.2822 86.1695 92.1914 85.9072 92.0299 85.7138C91.8683 85.5204 91.6492 85.4117 91.4208 85.4117ZM68.1629 91.5997V81.2864H69.8857V91.5997H68.1629ZM74.1927 94.6937H71.6085V78.1924H74.1927L74.1933 86.4302C74.1933 86.4346 74.1927 86.4387 74.1927 86.4431C74.1927 86.4475 74.1933 86.4516 74.1933 86.456L74.1938 94.6937H74.1927ZM85.3909 94.6937H82.8067V78.1924H85.3909L85.3911 80.2519L85.3909 80.2551L85.3911 80.2583L85.3919 92.6085C85.3918 92.6161 85.3909 92.6235 85.3909 92.6311C85.3909 92.6388 85.3918 92.6461 85.3919 92.6537L85.392 94.6937H85.3909ZM88.8366 91.5997H87.1138V81.2864H88.8366V91.5997Z" fill="#3A3A3A"/>
<path d="M143.966 87.8779H136.626C134.888 87.8779 133.48 86.1867 133.48 84.1151V80.341C133.481 79.3429 133.813 78.3862 134.403 77.6807C134.993 76.9753 135.792 76.5788 136.626 76.5781H143.966V87.8779ZM137.674 80.3447H143.966H137.674ZM137.674 84.1113H143.966H137.674ZM133.48 80.3447H122.465C121.598 80.3447 120.896 81.1809 120.896 82.228C120.896 83.2676 121.609 84.1113 122.465 84.1113H133.48V80.3447ZM126.139 91.6445H122.469C121.6 91.6445 120.896 92.4807 120.896 93.5278C120.896 94.5674 121.596 95.4111 122.474 95.4111H129.285C129.285 95.4111 129.285 99.1777 132.431 99.1777H137.674C140.82 99.1777 142.918 96.6667 142.918 91.6445H126.139Z" stroke="#3A3A3A" stroke-width="1.72519"/>
<path d="M25.1679 71.0179C26.9385 71.0179 28.6917 71.4355 30.3275 72.2467C31.9634 73.058 33.4497 74.247 34.7017 75.746C35.9537 77.245 36.9468 79.0245 37.6244 80.983C38.302 82.9415 38.6507 85.0407 38.6507 87.1605C38.6507 89.2804 38.302 91.3795 37.6244 93.338C36.9468 95.2965 35.9537 97.0761 34.7017 98.5751C33.4497 100.074 31.9634 101.263 30.3275 102.074C28.6917 102.886 26.9385 103.303 25.1679 103.303C21.592 103.303 18.1626 101.602 15.6341 98.5751C13.1056 95.5477 11.6851 91.4418 11.6851 87.1605C11.6851 82.8792 13.1056 78.7733 15.6341 75.746C18.1626 72.7187 21.592 71.0179 25.1679 71.0179V71.0179Z" stroke="#3A3A3A" stroke-width="1.72519" stroke-linecap="round"/>
<path d="M19.1753 90.7479C19.9243 93.4383 21.8569 96.1287 25.1677 96.1287C28.4784 96.1287 30.411 93.4383 31.16 90.7479" stroke="#3A3A3A" stroke-width="1.72519" stroke-linecap="round"/>
<path d="M20.6734 85.367C21.5008 85.367 22.1715 84.1624 22.1715 82.6765C22.1715 81.1906 21.5008 79.9861 20.6734 79.9861C19.846 79.9861 19.1753 81.1906 19.1753 82.6765C19.1753 84.1624 19.846 85.367 20.6734 85.367Z" fill="#3A3A3A"/>
<path d="M29.6622 85.367C30.4895 85.367 31.1602 84.1624 31.1602 82.6765C31.1602 81.1906 30.4895 79.9861 29.6622 79.9861C28.8348 79.9861 28.1641 81.1906 28.1641 82.6765C28.1641 84.1624 28.8348 85.367 29.6622 85.367Z" fill="#3A3A3A"/>
<circle cx="24.5687" cy="24.9809" r="24.5687" fill="#E08C46"/>
<path d="M14.372 25.644V30H13.058V25.644L8.018 17.4H9.44L13.76 24.474L18.08 17.4H19.412L14.372 25.644ZM24.0055 30.09C23.0935 30.09 22.2715 29.886 21.5395 29.478C20.8075 29.058 20.2315 28.482 19.8115 27.75C19.3915 27.018 19.1815 26.19 19.1815 25.266C19.1815 24.342 19.3915 23.514 19.8115 22.782C20.2315 22.05 20.8075 21.48 21.5395 21.072C22.2715 20.664 23.0935 20.46 24.0055 20.46C24.9175 20.46 25.7395 20.664 26.4715 21.072C27.2035 21.48 27.7735 22.05 28.1815 22.782C28.6015 23.514 28.8115 24.342 28.8115 25.266C28.8115 26.19 28.6015 27.018 28.1815 27.75C27.7735 28.482 27.2035 29.058 26.4715 29.478C25.7395 29.886 24.9175 30.09 24.0055 30.09ZM24.0055 28.956C24.6775 28.956 25.2775 28.806 25.8055 28.506C26.3455 28.194 26.7655 27.756 27.0655 27.192C27.3655 26.628 27.5155 25.986 27.5155 25.266C27.5155 24.546 27.3655 23.904 27.0655 23.34C26.7655 22.776 26.3455 22.344 25.8055 22.044C25.2775 21.732 24.6775 21.576 24.0055 21.576C23.3335 21.576 22.7275 21.732 22.1875 22.044C21.6595 22.344 21.2395 22.776 20.9275 23.34C20.6275 23.904 20.4775 24.546 20.4775 25.266C20.4775 25.986 20.6275 26.628 20.9275 27.192C21.2395 27.756 21.6595 28.194 22.1875 28.506C22.7275 28.806 23.3335 28.956 24.0055 28.956ZM39.9527 20.532V30H38.7287V28.272C38.3927 28.848 37.9307 29.298 37.3427 29.622C36.7547 29.934 36.0827 30.09 35.3267 30.09C34.0907 30.09 33.1127 29.748 32.3927 29.064C31.6847 28.368 31.3307 27.354 31.3307 26.022V20.532H32.6087V25.896C32.6087 26.892 32.8547 27.648 33.3467 28.164C33.8387 28.68 34.5407 28.938 35.4527 28.938C36.4487 28.938 37.2347 28.638 37.8107 28.038C38.3867 27.426 38.6747 26.58 38.6747 25.5V20.532H39.9527Z" fill="white"/>
<circle cx="78.5687" cy="24.9809" r="24.5687" fill="#E08C46"/>
<path d="M75.99 23.502C76.818 23.682 77.454 24.042 77.898 24.582C78.354 25.11 78.582 25.794 78.582 26.634C78.582 27.714 78.18 28.548 77.376 29.136C76.584 29.712 75.408 30 73.848 30H68.052V17.4H73.488C74.892 17.4 75.978 17.682 76.746 18.246C77.526 18.81 77.916 19.608 77.916 20.64C77.916 21.336 77.742 21.93 77.394 22.422C77.058 22.902 76.59 23.262 75.99 23.502ZM69.384 18.498V23.07H73.398C74.418 23.07 75.204 22.878 75.756 22.494C76.308 22.098 76.584 21.528 76.584 20.784C76.584 20.04 76.308 19.476 75.756 19.092C75.204 18.696 74.418 18.498 73.398 18.498H69.384ZM73.83 28.902C74.958 28.902 75.81 28.71 76.386 28.326C76.962 27.942 77.25 27.342 77.25 26.526C77.25 24.954 76.11 24.168 73.83 24.168H69.384V28.902H73.83ZM89.5963 25.662H81.6763C81.7483 26.646 82.1263 27.444 82.8103 28.056C83.4943 28.656 84.3583 28.956 85.4023 28.956C85.9903 28.956 86.5303 28.854 87.0223 28.65C87.5143 28.434 87.9403 28.122 88.3003 27.714L89.0203 28.542C88.6003 29.046 88.0723 29.43 87.4363 29.694C86.8123 29.958 86.1223 30.09 85.3663 30.09C84.3943 30.09 83.5303 29.886 82.7743 29.478C82.0303 29.058 81.4483 28.482 81.0283 27.75C80.6083 27.018 80.3983 26.19 80.3983 25.266C80.3983 24.342 80.5963 23.514 80.9923 22.782C81.4003 22.05 81.9523 21.48 82.6483 21.072C83.3563 20.664 84.1483 20.46 85.0243 20.46C85.9003 20.46 86.6863 20.664 87.3823 21.072C88.0783 21.48 88.6243 22.05 89.0203 22.782C89.4163 23.502 89.6143 24.33 89.6143 25.266L89.5963 25.662ZM85.0243 21.558C84.1123 21.558 83.3443 21.852 82.7203 22.44C82.1083 23.016 81.7603 23.772 81.6763 24.708H88.3903C88.3063 23.772 87.9523 23.016 87.3283 22.44C86.7163 21.852 85.9483 21.558 85.0243 21.558Z" fill="white"/>
<circle cx="132.569" cy="24.9809" r="24.5687" fill="#E08C46"/>
<path d="M123.384 18.552V23.502H129.9V24.654H123.384V30H122.052V17.4H130.692V18.552H123.384ZM132.997 20.532H134.275V30H132.997V20.532ZM133.645 18.462C133.381 18.462 133.159 18.372 132.979 18.192C132.799 18.012 132.709 17.796 132.709 17.544C132.709 17.304 132.799 17.094 132.979 16.914C133.159 16.734 133.381 16.644 133.645 16.644C133.909 16.644 134.131 16.734 134.311 16.914C134.491 17.082 134.581 17.286 134.581 17.526C134.581 17.79 134.491 18.012 134.311 18.192C134.131 18.372 133.909 18.462 133.645 18.462ZM142.817 29.424C142.577 29.64 142.277 29.808 141.917 29.928C141.569 30.036 141.203 30.09 140.819 30.09C139.931 30.09 139.247 29.85 138.767 29.37C138.287 28.89 138.047 28.212 138.047 27.336V21.612H136.355V20.532H138.047V18.462H139.325V20.532H142.205V21.612H139.325V27.264C139.325 27.828 139.463 28.26 139.739 28.56C140.027 28.848 140.435 28.992 140.963 28.992C141.227 28.992 141.479 28.95 141.719 28.866C141.971 28.782 142.187 28.662 142.367 28.506L142.817 29.424Z" fill="white"/>
</svg>
