<svg width="215" height="112" viewBox="0 0 215 112" fill="none" xmlns="http://www.w3.org/2000/svg">
<path d="M124.772 89.605H123.597V84.9024C123.596 84.279 123.348 83.6814 122.907 83.2406C122.466 82.7998 121.869 82.5518 121.245 82.5511H118.894V81.3755C118.893 80.7521 118.645 80.1544 118.205 79.7136C117.764 79.2728 117.166 79.0249 116.543 79.0242H113.016C112.392 79.0249 111.795 79.2728 111.354 79.7136C110.913 80.1544 110.665 80.7521 110.664 81.3755V89.605H103.611V81.3755C103.61 80.7521 103.362 80.1544 102.921 79.7136C102.48 79.2728 101.883 79.0249 101.259 79.0242H97.7323C97.1089 79.0249 96.5112 79.2728 96.0704 79.7136C95.6296 80.1544 95.3817 80.7521 95.381 81.3755V82.5511H93.0297C92.4063 82.5518 91.8086 82.7998 91.3678 83.2406C90.927 83.6814 90.6791 84.279 90.6784 84.9024V89.605H89.5027C89.1909 89.605 88.8919 89.7289 88.6714 89.9494C88.451 90.1698 88.3271 90.4689 88.3271 90.7807C88.3271 91.0925 88.451 91.3915 88.6714 91.612C88.8919 91.8325 89.1909 91.9563 89.5027 91.9563H90.6784V96.6589C90.6791 97.2823 90.927 97.88 91.3678 98.3208C91.8086 98.7616 92.4063 99.0095 93.0297 99.0102H95.381V100.186C95.3817 100.809 95.6296 101.407 96.0704 101.848C96.5112 102.289 97.1089 102.536 97.7323 102.537H101.259C101.883 102.536 102.48 102.289 102.921 101.848C103.362 101.407 103.61 100.809 103.611 100.186V91.9563H110.664V100.186C110.665 100.809 110.913 101.407 111.354 101.848C111.795 102.289 112.392 102.536 113.016 102.537H116.543C117.166 102.536 117.764 102.289 118.205 101.848C118.645 101.407 118.893 100.809 118.894 100.186V99.0102H121.245C121.869 99.0095 122.466 98.7616 122.907 98.3208C123.348 97.88 123.596 97.2823 123.597 96.6589V91.9563H124.772C125.084 91.9563 125.383 91.8325 125.604 91.612C125.824 91.3915 125.948 91.0925 125.948 90.7807C125.948 90.4689 125.824 90.1698 125.604 89.9494C125.383 89.7289 125.084 89.605 124.772 89.605ZM93.0297 96.6589V84.9024H95.381V96.6589H93.0297ZM101.259 100.186H97.7323V81.3755H101.259L101.26 90.766C101.26 90.771 101.259 90.7757 101.259 90.7807C101.259 90.7857 101.26 90.7904 101.26 90.7954L101.261 100.186H101.259ZM116.543 100.186H113.016V81.3755H116.543L116.543 83.7231L116.543 83.7268L116.543 83.7304L116.544 97.8089C116.544 97.8175 116.543 97.8259 116.543 97.8346C116.543 97.8434 116.544 97.8518 116.544 97.8604L116.544 100.186H116.543ZM121.245 96.6589H118.894V84.9024H121.245V96.6589Z" fill="#3A3A3A"/>
<path d="M196.487 92.4164H186.468C184.097 92.4164 182.175 90.4885 182.175 88.127V83.8247C182.177 82.6869 182.63 81.5964 183.435 80.7922C184.24 79.9881 185.331 79.5361 186.468 79.5353H196.487V92.4164ZM187.9 83.829H196.487H187.9ZM187.9 88.1227H196.487H187.9ZM182.175 83.829H167.141C165.959 83.829 165 84.7822 165 85.9759C165 87.1609 165.973 88.1227 167.141 88.1227H182.175V83.829ZM172.156 96.7101H167.147C165.962 96.7101 165 97.6633 165 98.8569C165 100.042 165.956 101.004 167.154 101.004H176.45C176.45 101.004 176.45 105.297 180.743 105.297H187.9C192.193 105.297 195.056 102.435 195.056 96.7101H172.156Z" stroke="#3A3A3A" stroke-width="3.27138"/>
<path d="M34.3494 73.197C36.7659 73.197 39.1587 73.673 41.3913 74.5978C43.6239 75.5225 45.6524 76.878 47.3612 78.5867C49.0699 80.2954 50.4254 82.324 51.3501 84.5566C52.2749 86.7891 52.7509 89.182 52.7509 91.5985C52.7509 94.015 52.2749 96.4079 51.3501 98.6405C50.4254 100.873 49.0699 102.902 47.3612 104.61C45.6524 106.319 43.6239 107.675 41.3913 108.599C39.1587 109.524 36.7659 110 34.3494 110C29.469 110 24.7885 108.061 21.3375 104.61C17.8866 101.159 15.9479 96.4789 15.9479 91.5985C15.9479 86.7181 17.8866 82.0376 21.3375 78.5867C24.7885 75.1357 29.469 73.197 34.3494 73.197V73.197Z" stroke="#3A3A3A" stroke-width="3.27138" stroke-linecap="round"/>
<path d="M26.171 95.6877C27.1933 98.7547 29.8308 101.822 34.3494 101.822C38.868 101.822 41.5055 98.7547 42.5278 95.6877" stroke="#3A3A3A" stroke-width="3.27138" stroke-linecap="round"/>
<path d="M28.2156 89.5539C29.3448 89.5539 30.2602 88.1808 30.2602 86.487C30.2602 84.7932 29.3448 83.4201 28.2156 83.4201C27.0864 83.4201 26.171 84.7932 26.171 86.487C26.171 88.1808 27.0864 89.5539 28.2156 89.5539Z" fill="#3A3A3A"/>
<path d="M40.4833 89.5539C41.6125 89.5539 42.5279 88.1808 42.5279 86.487C42.5279 84.7932 41.6125 83.4201 40.4833 83.4201C39.3541 83.4201 38.4387 84.7932 38.4387 86.487C38.4387 88.1808 39.3541 89.5539 40.4833 89.5539Z" fill="#3A3A3A"/>
<circle cx="33.5316" cy="33.5316" r="33.5316" fill="#E08C46"/>
<path d="M16.1982 36.3667V44.0855H13.8698V36.3667L4.93894 21.7584H7.45872L15.1137 34.2935L22.7688 21.7584H25.1291L16.1982 36.3667ZM33.2687 44.245C31.6527 44.245 30.1961 43.8835 28.899 43.1605C27.6019 42.4163 26.5812 41.3956 25.837 40.0985C25.0928 38.8014 24.7206 37.3342 24.7206 35.6969C24.7206 34.0596 25.0928 32.5923 25.837 31.2952C26.5812 29.9981 27.6019 28.9881 28.899 28.2651C30.1961 27.5422 31.6527 27.1807 33.2687 27.1807C34.8848 27.1807 36.3414 27.5422 37.6385 28.2651C38.9356 28.9881 39.9456 29.9981 40.6686 31.2952C41.4128 32.5923 41.785 34.0596 41.785 35.6969C41.785 37.3342 41.4128 38.8014 40.6686 40.0985C39.9456 41.3956 38.9356 42.4163 37.6385 43.1605C36.3414 43.8835 34.8848 44.245 33.2687 44.245ZM33.2687 42.2355C34.4595 42.2355 35.5227 41.9697 36.4583 41.4381C37.4152 40.8853 38.1594 40.1092 38.691 39.1097C39.2226 38.1103 39.4884 36.9727 39.4884 35.6969C39.4884 34.421 39.2226 33.2834 38.691 32.284C38.1594 31.2846 37.4152 30.5191 36.4583 29.9875C35.5227 29.4347 34.4595 29.1582 33.2687 29.1582C32.078 29.1582 31.0041 29.4347 30.0473 29.9875C29.1116 30.5191 28.3674 31.2846 27.8145 32.284C27.2829 33.2834 27.0171 34.421 27.0171 35.6969C27.0171 36.9727 27.2829 38.1103 27.8145 39.1097C28.3674 40.1092 29.1116 40.8853 30.0473 41.4381C31.0041 41.9697 32.078 42.2355 33.2687 42.2355ZM61.527 27.3083V44.0855H59.3581V41.0235C58.7627 42.0442 57.9441 42.8416 56.9021 43.4157C55.8602 43.9686 54.6694 44.245 53.3298 44.245C51.1396 44.245 49.4066 43.639 48.1307 42.4269C46.8762 41.1936 46.2489 39.3968 46.2489 37.0365V27.3083H48.5135V36.8132C48.5135 38.5781 48.9494 39.9178 49.8212 40.8321C50.693 41.7465 51.937 42.2037 53.553 42.2037C55.318 42.2037 56.7107 41.6721 57.7314 40.6089C58.7521 39.5244 59.2624 38.0253 59.2624 36.1115V27.3083H61.527Z" fill="white"/>
<circle cx="107.137" cy="33.5316" r="33.5316" fill="#E08C46"/>
<path d="M102.758 32.5711C104.225 32.89 105.352 33.528 106.139 34.4848C106.947 35.4205 107.351 36.6325 107.351 38.121C107.351 40.0347 106.639 41.5126 105.214 42.5545C103.811 43.5752 101.727 44.0855 98.9624 44.0855H88.6919V21.7584H98.3245C100.812 21.7584 102.737 22.2581 104.098 23.2575C105.48 24.2569 106.171 25.6709 106.171 27.4996C106.171 28.7329 105.863 29.7855 105.246 30.6573C104.651 31.5079 103.821 32.1458 102.758 32.5711ZM91.0522 23.704V31.8056H98.165C99.9724 31.8056 101.365 31.4654 102.343 30.7849C103.322 30.0832 103.811 29.0732 103.811 27.7548C103.811 26.4364 103.322 25.437 102.343 24.7566C101.365 24.0549 99.9724 23.704 98.165 23.704H91.0522ZM98.9305 42.1399C100.929 42.1399 102.439 41.7996 103.46 41.1192C104.48 40.4387 104.991 39.3755 104.991 37.9296C104.991 35.144 102.971 33.7512 98.9305 33.7512H91.0522V42.1399H98.9305ZM126.868 36.3986H112.834C112.962 38.1422 113.632 39.5563 114.844 40.6408C116.056 41.7039 117.587 42.2355 119.437 42.2355C120.479 42.2355 121.435 42.0548 122.307 41.6933C123.179 41.3106 123.934 40.7577 124.572 40.0347L125.848 41.5019C125.103 42.395 124.168 43.0755 123.041 43.5433C121.935 44.0111 120.712 44.245 119.373 44.245C117.65 44.245 116.119 43.8835 114.78 43.1605C113.461 42.4163 112.43 41.3956 111.686 40.0985C110.942 38.8014 110.57 37.3342 110.57 35.6969C110.57 34.0596 110.92 32.5923 111.622 31.2952C112.345 29.9981 113.323 28.9881 114.557 28.2651C115.811 27.5422 117.215 27.1807 118.767 27.1807C120.319 27.1807 121.712 27.5422 122.945 28.2651C124.178 28.9881 125.146 29.9981 125.848 31.2952C126.549 32.5711 126.9 34.0383 126.9 35.6969L126.868 36.3986ZM118.767 29.1263C117.151 29.1263 115.79 29.6473 114.684 30.6892C113.6 31.7099 112.983 33.0495 112.834 34.7081H124.731C124.582 33.0495 123.955 31.7099 122.849 30.6892C121.765 29.6473 120.404 29.1263 118.767 29.1263Z" fill="white"/>
<circle cx="180.744" cy="33.5316" r="33.5316" fill="#E08C46"/>
<path d="M164.658 23.7997V32.5711H176.204V34.6124H164.658V44.0855H162.298V21.7584H177.608V23.7997H164.658ZM181.692 27.3083H183.957V44.0855H181.692V27.3083ZM182.84 23.6402C182.372 23.6402 181.979 23.4807 181.66 23.1618C181.341 22.8428 181.182 22.4601 181.182 22.0135C181.182 21.5883 181.341 21.2161 181.66 20.8972C181.979 20.5782 182.372 20.4187 182.84 20.4187C183.308 20.4187 183.701 20.5782 184.02 20.8972C184.339 21.1949 184.499 21.5564 184.499 21.9816C184.499 22.4494 184.339 22.8428 184.02 23.1618C183.701 23.4807 183.308 23.6402 182.84 23.6402ZM199.093 43.0648C198.668 43.4476 198.136 43.7453 197.498 43.9579C196.882 44.1493 196.233 44.245 195.553 44.245C193.979 44.245 192.767 43.8197 191.916 42.9692C191.066 42.1186 190.641 40.9172 190.641 39.3649V29.222H187.642V27.3083H190.641V23.6402H192.905V27.3083H198.009V29.222H192.905V39.2373C192.905 40.2367 193.15 41.0022 193.639 41.5338C194.149 42.0442 194.872 42.2993 195.808 42.2993C196.276 42.2993 196.722 42.2249 197.147 42.0761C197.594 41.9272 197.977 41.7146 198.296 41.4381L199.093 43.0648Z" fill="white"/>
</svg>
